{"title":"Rogue River.2012.DVDRip.XviD.BBnRG","uid":7019917,"size":1159331796,"categoryP":"video","categoryS":"movies","magnet":"?xt=urn:btih:7f02a6fcf849a28334f82dedade9f551251946fb&amp;dn=Rogue+River.2012.DVDRip.XviD.BBnRG&amp;tr=udp%3A%2F%2Ftracker.openbittorrent.com%3A80&amp;tr=udp%3A%2F%2Fopen.demonii.com%3A1337&amp;tr=udp%3A%2F%2Ftracker.coppersurfer.tk%3A6969&amp;tr=udp%3A%2F%2Fexodus.desync.com%3A6969","seeders":0,"leechers":0,"uploader":"crazy-torrent","files":2,"time":1328799919,"description":" &lt;a href=&quot;http://www.scenespeeds.com/&quot; rel=&quot;nofollow&quot; target=&quot;_NEW&quot;&gt;http://www.scenespeeds.com/&lt;/a&gt;\n\nDescription\n\nGeneral Information\n\nComplete name : Rogue River (2012) DVDRip XviD BBnRG.avi\nFormat : AVI\nFormat/Info : Audio Video Interleave\nFile size : 1.08 GiB\nDuration : 1h 17mn\nOverall bit rate : 1 991 Kbps\n\nVideo\nID : 0\nFormat : MPEG-4 Visual\nFormat profile : Advanced Simple@L5\nFormat settings, BVOP : 2\nFormat settings, QPel : Yes\nFormat settings, GMC : No warppoints\nFormat settings, Matrix : Default (H.263)\nCodec ID : XVID\nCodec ID/Hint : XviD\nDuration : 1h 17mn\nBit rate : 1 599 Kbps\nWidth : 720 pixels\nHeight : 400 pixels\nDisplay aspect ratio : 16:9\nFrame rate : 25.000 fps\nColor space : YUV\nChroma subsampling : 4:2:0\nBit depth : 8 bits\nScan type : Progressive\nCompression mode : Lossy\nBits/(Pixel*Frame) : 0.222\nStream size : 888 MiB (80%)\nWriting library : XviD 1.2.1 (UTC 2008-12-04)\n\nAudio\nID : 1\nFormat : AC-3\nFormat/Info : Audio Coding 3\nMode extension : CM (complete main)\nCodec ID : 2000\nDuration : 1h 17mn\nBit rate mode : Constant\nBit rate : 384 Kbps\nChannel(s) : 6 channels\nChannel positions : Front: L C R, Side: L R, LFE\nSampling rate : 48.0 KHz\nBit depth : 16 bits\nCompression mode : Lossy\nStream size : 213 MiB (19%)\nAlignment : Aligned on interleaves\nInterleave, duration : 64 ms (1.60 video frames)\nInterleave, preload duration : 192 ms\nTitle : Rogue River (2012) BBnRG\nNotes\n\nEncoder: FridayToker\nSource(s): DVDR-KiK (thanks)\n\nAnother fine release from BBnRG\n\nSummary\n\nHorror | Thriller - 11 May 2012 (USA)\n\nWhile scattering her father ashes at a remote part of Oregon's beautiful Rogue River, Marra (Michelle Page) car is towed away. Stranded, she accepts a ride from a kind passerby Jon (Bill Moseley).A quick detour leads to Jon cabin deep in the woods, where his wife Lea quickly capitivates Marra and convices her to spend the night.However, Marra world soon becomes a harrowing nightmare as Jon and Lea reveal their true colours and the night unfolds into a shocking and spine -chilling sequence of horrors with a climax that will leave your nerves stripped bare!\n\nIMDb Link: &lt;a href=&quot;\nhttp://www.imdb.com/title/tt1560978/&quot; rel=&quot;nofollow&quot; target=&quot;_NEW&quot;&gt;\nhttp://www.imdb.com/title/tt1560978/&lt;/a&gt; \n  &lt;a href=&quot;\nhttp://www.scenespeeds.com/&quot; rel=&quot;nofollow&quot; target=&quot;_NEW&quot;&gt;\nhttp://www.scenespeeds.com/&lt;/a&gt;\t","torrent":{"xt":"urn:btih:7f02a6fcf849a28334f82dedade9f551251946fb","amp;dn":"Rogue+River.2012.DVDRip.XviD.BBnRG","amp;tr":["udp%3A%2F%2Ftracker.openbittorrent.com%3A80","udp%3A%2F%2Fopen.demonii.com%3A1337","udp%3A%2F%2Ftracker.coppersurfer.tk%3A6969","udp%3A%2F%2Fexodus.desync.com%3A6969"],"infoHash":"7f02a6fcf849a28334f82dedade9f551251946fb","infoHashBuffer":{"type":"Buffer","data":[127,2,166,252,248,73,162,131,52,248,45,237,173,233,245,81,37,25,70,251]},"announce":[],"urlList":[]}}